<?xml version="1.0" encoding="UTF-8" standalone="no"?>
<!DOCTYPE svg PUBLIC "-//W3C//DTD SVG 1.1//EN"
 "http://www.w3.org/Graphics/SVG/1.1/DTD/svg11.dtd">
<!-- Generated by graphviz version 2.38.0 (20140413.2041)
 -->
<!-- Title: cargo Pages: 1 -->
<svg width="1882pt" height="548pt"
 viewBox="0.00 0.00 1881.93 548.00" xmlns="http://www.w3.org/2000/svg" xmlns:xlink="http://www.w3.org/1999/xlink">
<g id="graph0" class="graph" transform="scale(1 1) rotate(0) translate(4 544)">
<title>cargo</title>
<polygon fill="white" stroke="none" points="-4,4 -4,-544 1877.93,-544 1877.93,4 -4,4"/>
<!-- cargo -->
<g id="node1" class="node"><title>cargo</title>
<ellipse fill="red" stroke="black" cx="1099.93" cy="-522" rx="30.5947" ry="18"/>
<text text-anchor="middle" x="1099.93" y="-518.3" font-family="Times,serif" font-size="14.00" fill="white">cargo</text>
</g>
<!-- advapi32_sys -->
<g id="node2" class="node"><title>advapi32_sys</title>
<ellipse fill="none" stroke="black" cx="1749.93" cy="-378" rx="58.4896" ry="18"/>
<text text-anchor="middle" x="1749.93" y="-374.3" font-family="Times,serif" font-size="14.00">advapi32_sys</text>
</g>
<!-- cargo&#45;&gt;advapi32_sys -->
<g id="edge1" class="edge"><title>cargo&#45;&gt;advapi32_sys</title>
<path fill="none" stroke="black" d="M1130.71,-520.642C1251.99,-518.939 1692.36,-509.894 1736.93,-468 1753.33,-452.59 1755.39,-426.328 1754.05,-406.315"/>
<polygon fill="black" stroke="black" points="1757.52,-405.841 1753.07,-396.229 1750.56,-406.522 1757.52,-405.841"/>
</g>
<!-- curl -->
<g id="node3" class="node"><title>curl</title>
<ellipse fill="none" stroke="black" cx="318.934" cy="-378" rx="27" ry="18"/>
<text text-anchor="middle" x="318.934" y="-374.3" font-family="Times,serif" font-size="14.00">curl</text>
</g>
<!-- cargo&#45;&gt;curl -->
<g id="edge2" class="edge"><title>cargo&#45;&gt;curl</title>
<path fill="none" stroke="black" d="M1069.18,-520.916C934.358,-520.275 399.77,-514.78 342.934,-468 325.023,-453.259 319.701,-426.678 318.453,-406.391"/>
<polygon fill="black" stroke="black" points="321.944,-406.051 318.126,-396.168 314.948,-406.275 321.944,-406.051"/>
</g>
<!-- docopt -->
<g id="node4" class="node"><title>docopt</title>
<ellipse fill="none" stroke="black" cx="942.934" cy="-450" rx="34.394" ry="18"/>
<text text-anchor="middle" x="942.934" y="-446.3" font-family="Times,serif" font-size="14.00">docopt</text>
</g>
<!-- cargo&#45;&gt;docopt -->
<g id="edge3" class="edge"><title>cargo&#45;&gt;docopt</title>
<path fill="none" stroke="black" d="M1076.09,-510.369C1049.85,-498.669 1007.43,-479.758 977.537,-466.428"/>
<polygon fill="black" stroke="black" points="978.866,-463.189 968.307,-462.313 976.015,-469.582 978.866,-463.189"/>
</g>
<!-- env_logger -->
<g id="node5" class="node"><title>env_logger</title>
<ellipse fill="none" stroke="black" cx="1215.93" cy="-450" rx="50.0912" ry="18"/>
<text text-anchor="middle" x="1215.93" y="-446.3" font-family="Times,serif" font-size="14.00">env_logger</text>
</g>
<!-- cargo&#45;&gt;env_logger -->
<g id="edge4" class="edge"><title>cargo&#45;&gt;env_logger</title>
<path fill="none" stroke="black" d="M1120.67,-508.485C1137.85,-498.118 1162.6,-483.187 1182.56,-471.14"/>
<polygon fill="black" stroke="black" points="1184.6,-473.998 1191.35,-465.834 1180.98,-468.005 1184.6,-473.998"/>
</g>
<!-- flate2 -->
<g id="node6" class="node"><title>flate2</title>
<ellipse fill="none" stroke="black" cx="977.934" cy="-234" rx="30.5947" ry="18"/>
<text text-anchor="middle" x="977.934" y="-230.3" font-family="Times,serif" font-size="14.00">flate2</text>
</g>
<!-- cargo&#45;&gt;flate2 -->
<g id="edge5" class="edge"><title>cargo&#45;&gt;flate2</title>
<path fill="none" stroke="black" d="M1099.24,-503.819C1097.48,-473.559 1091.32,-409.298 1069.93,-360 1052.69,-320.246 1020.8,-281.109 999.477,-257.503"/>
<polygon fill="black" stroke="black" points="1002.03,-255.108 992.686,-250.114 996.876,-259.845 1002.03,-255.108"/>
</g>
<!-- git2 -->
<g id="node7" class="node"><title>git2</title>
<ellipse fill="none" stroke="black" cx="506.934" cy="-378" rx="27" ry="18"/>
<text text-anchor="middle" x="506.934" y="-374.3" font-family="Times,serif" font-size="14.00">git2</text>
</g>
<!-- cargo&#45;&gt;git2 -->
<g id="edge6" class="edge"><title>cargo&#45;&gt;git2</title>
<path fill="none" stroke="black" d="M1069.53,-519.974C976.591,-516.48 697.625,-503.248 614.934,-468 592.005,-458.227 591.148,-447.876 571.934,-432 558.618,-420.998 543.686,-408.812 531.495,-398.902"/>
<polygon fill="black" stroke="black" points="533.515,-396.034 523.546,-392.447 529.102,-401.468 533.515,-396.034"/>
</g>
<!-- git2_curl -->
<g id="node8" class="node"><title>git2_curl</title>
<ellipse fill="none" stroke="black" cx="520.934" cy="-450" rx="42.4939" ry="18"/>
<text text-anchor="middle" x="520.934" y="-446.3" font-family="Times,serif" font-size="14.00">git2_curl</text>
</g>
<!-- cargo&#45;&gt;git2_curl -->
<g id="edge7" class="edge"><title>cargo&#45;&gt;git2_curl</title>
<path fill="none" stroke="black" d="M1069.56,-519.977C988.692,-516.812 761.716,-505.046 576.934,-468 572.261,-467.063 567.42,-465.899 562.63,-464.622"/>
<polygon fill="black" stroke="black" points="563.515,-461.235 552.94,-461.88 561.609,-467.97 563.515,-461.235"/>
</g>
<!-- glob -->
<g id="node9" class="node"><title>glob</title>
<ellipse fill="none" stroke="black" cx="721.934" cy="-450" rx="27" ry="18"/>
<text text-anchor="middle" x="721.934" y="-446.3" font-family="Times,serif" font-size="14.00">glob</text>
</g>
<!-- cargo&#45;&gt;glob -->
<g id="edge8" class="edge"><title>cargo&#45;&gt;glob</title>
<path fill="none" stroke="black" d="M1069.55,-519.224C1009.03,-515.051 869.664,-502.252 757.934,-468 756.001,-467.407 754.04,-466.728 752.082,-465.99"/>
<polygon fill="black" stroke="black" points="753.042,-462.597 742.468,-461.935 750.322,-469.047 753.042,-462.597"/>
</g>
<!-- hamcrest -->
<g id="node10" class="node"><title>hamcrest</title>
<ellipse fill="none" stroke="black" cx="809.934" cy="-450" rx="42.7926" ry="18"/>
<text text-anchor="middle" x="809.934" y="-446.3" font-family="Times,serif" font-size="14.00">hamcrest</text>
</g>
<!-- cargo&#45;&gt;hamcrest -->
<g id="edge9" class="edge"><title>cargo&#45;&gt;hamcrest</title>
<path fill="none" stroke="black" d="M1071.45,-515.157C1027.4,-505.975 940.161,-487.226 866.934,-468 862.487,-466.833 857.864,-465.557 853.259,-464.247"/>
<polygon fill="black" stroke="black" points="853.865,-460.778 843.285,-461.35 851.912,-467.5 853.865,-460.778"/>
</g>
<!-- kernel32_sys -->
<g id="node11" class="node"><title>kernel32_sys</title>
<ellipse fill="none" stroke="black" cx="1578.93" cy="-378" rx="57.3905" ry="18"/>
<text text-anchor="middle" x="1578.93" y="-374.3" font-family="Times,serif" font-size="14.00">kernel32_sys</text>
</g>
<!-- cargo&#45;&gt;kernel32_sys -->
<g id="edge10" class="edge"><title>cargo&#45;&gt;kernel32_sys</title>
<path fill="none" stroke="black" d="M1130.46,-519.968C1213.77,-516.697 1443.14,-504.522 1507.93,-468 1533.62,-453.523 1553.47,-425.703 1565.58,-405.003"/>
<polygon fill="black" stroke="black" points="1568.75,-406.501 1570.58,-396.066 1562.64,-403.079 1568.75,-406.501"/>
</g>
<!-- libc -->
<g id="node12" class="node"><title>libc</title>
<ellipse fill="none" stroke="black" cx="899.934" cy="-90" rx="27" ry="18"/>
<text text-anchor="middle" x="899.934" y="-86.3" font-family="Times,serif" font-size="14.00">libc</text>
</g>
<!-- cargo&#45;&gt;libc -->
<g id="edge11" class="edge"><title>cargo&#45;&gt;libc</title>
<path fill="none" stroke="black" d="M1070.42,-517.002C1020.68,-509.663 923.283,-492.515 899.934,-468 872.039,-438.712 880.934,-419.447 880.934,-379 880.934,-379 880.934,-379 880.934,-233 880.934,-192.64 888.568,-146.392 894.158,-117.936"/>
<polygon fill="black" stroke="black" points="897.625,-118.447 896.18,-107.951 890.765,-117.057 897.625,-118.447"/>
</g>
<!-- log -->
<g id="node13" class="node"><title>log</title>
<ellipse fill="none" stroke="black" cx="1152.93" cy="-306" rx="27" ry="18"/>
<text text-anchor="middle" x="1152.93" y="-302.3" font-family="Times,serif" font-size="14.00">log</text>
</g>
<!-- cargo&#45;&gt;log -->
<g id="edge12" class="edge"><title>cargo&#45;&gt;log</title>
<path fill="none" stroke="black" d="M1130.77,-521.853C1171.41,-521.093 1241.64,-512.868 1274.93,-468 1314.39,-414.818 1229.26,-352.495 1181.87,-323.452"/>
<polygon fill="black" stroke="black" points="1183.6,-320.406 1173.22,-318.262 1180,-326.408 1183.6,-320.406"/>
</g>
<!-- num_cpus -->
<g id="node14" class="node"><title>num_cpus</title>
<ellipse fill="none" stroke="black" cx="1245.93" cy="-162" rx="47.3916" ry="18"/>
<text text-anchor="middle" x="1245.93" y="-158.3" font-family="Times,serif" font-size="14.00">num_cpus</text>
</g>
<!-- cargo&#45;&gt;num_cpus -->
<g id="edge13" class="edge"><title>cargo&#45;&gt;num_cpus</title>
<path fill="none" stroke="black" d="M1130.4,-519.918C1252.6,-515.396 1703.37,-496.881 1759.93,-468 1806.26,-444.347 1835.93,-431.015 1835.93,-379 1835.93,-379 1835.93,-379 1835.93,-305 1835.93,-183.126 1419.64,-211.607 1301.93,-180 1298.39,-179.048 1294.73,-178.026 1291.06,-176.973"/>
<polygon fill="black" stroke="black" points="1291.96,-173.592 1281.38,-174.14 1290,-180.31 1291.96,-173.592"/>
</g>
<!-- regex -->
<g id="node15" class="node"><title>regex</title>
<ellipse fill="none" stroke="black" cx="1156.93" cy="-378" rx="30.5947" ry="18"/>
<text text-anchor="middle" x="1156.93" y="-374.3" font-family="Times,serif" font-size="14.00">regex</text>
</g>
<!-- cargo&#45;&gt;regex -->
<g id="edge14" class="edge"><title>cargo&#45;&gt;regex</title>
<path fill="none" stroke="black" d="M1106.7,-504.153C1116.51,-479.706 1134.79,-434.171 1146.38,-405.286"/>
<polygon fill="black" stroke="black" points="1149.7,-406.409 1150.18,-395.825 1143.21,-403.801 1149.7,-406.409"/>
</g>
<!-- registry -->
<g id="node16" class="node"><title>registry</title>
<ellipse fill="none" stroke="black" cx="422.934" cy="-450" rx="37.8943" ry="18"/>
<text text-anchor="middle" x="422.934" y="-446.3" font-family="Times,serif" font-size="14.00">registry</text>
</g>
<!-- cargo&#45;&gt;registry -->
<g id="edge15" class="edge"><title>cargo&#45;&gt;registry</title>
<path fill="none" stroke="black" d="M1069.35,-521.253C977.453,-521.415 696.173,-517.523 469.934,-468 466.895,-467.335 463.787,-466.523 460.686,-465.618"/>
<polygon fill="black" stroke="black" points="461.503,-462.204 450.911,-462.478 459.362,-468.869 461.503,-462.204"/>
</g>
<!-- rustc_serialize -->
<g id="node17" class="node"><title>rustc_serialize</title>
<ellipse fill="none" stroke="black" cx="648.934" cy="-234" rx="61.99" ry="18"/>
<text text-anchor="middle" x="648.934" y="-230.3" font-family="Times,serif" font-size="14.00">rustc_serialize</text>
</g>
<!-- cargo&#45;&gt;rustc_serialize -->
<g id="edge16" class="edge"><title>cargo&#45;&gt;rustc_serialize</title>
<path fill="none" stroke="black" d="M1069.61,-519.495C975.478,-514.528 692.928,-497.284 664.934,-468 611.553,-412.161 628.764,-310.385 641.061,-261.973"/>
<polygon fill="black" stroke="black" points="644.468,-262.782 643.659,-252.218 637.704,-260.98 644.468,-262.782"/>
</g>
<!-- semver -->
<g id="node18" class="node"><title>semver</title>
<ellipse fill="none" stroke="black" cx="1357.93" cy="-450" rx="36.2938" ry="18"/>
<text text-anchor="middle" x="1357.93" y="-446.3" font-family="Times,serif" font-size="14.00">semver</text>
</g>
<!-- cargo&#45;&gt;semver -->
<g id="edge17" class="edge"><title>cargo&#45;&gt;semver</title>
<path fill="none" stroke="black" d="M1128.05,-514.574C1168.2,-505.231 1244.17,-486.933 1307.93,-468 1311.73,-466.873 1315.67,-465.641 1319.6,-464.374"/>
<polygon fill="black" stroke="black" points="1320.84,-467.648 1329.24,-461.186 1318.64,-461.002 1320.84,-467.648"/>
</g>
<!-- tar -->
<g id="node19" class="node"><title>tar</title>
<ellipse fill="none" stroke="black" cx="1438.93" cy="-450" rx="27" ry="18"/>
<text text-anchor="middle" x="1438.93" y="-446.3" font-family="Times,serif" font-size="14.00">tar</text>
</g>
<!-- cargo&#45;&gt;tar -->
<g id="edge18" class="edge"><title>cargo&#45;&gt;tar</title>
<path fill="none" stroke="black" d="M1130.25,-518.408C1185.53,-513.089 1305.96,-498.76 1402.93,-468 1404.86,-467.389 1406.82,-466.695 1408.77,-465.946"/>
<polygon fill="black" stroke="black" points="1410.54,-468.996 1418.38,-461.863 1407.8,-462.554 1410.54,-468.996"/>
</g>
<!-- tempdir -->
<g id="node20" class="node"><title>tempdir</title>
<ellipse fill="none" stroke="black" cx="1033.93" cy="-450" rx="38.1938" ry="18"/>
<text text-anchor="middle" x="1033.93" y="-446.3" font-family="Times,serif" font-size="14.00">tempdir</text>
</g>
<!-- cargo&#45;&gt;tempdir -->
<g id="edge19" class="edge"><title>cargo&#45;&gt;tempdir</title>
<path fill="none" stroke="black" d="M1085.61,-505.811C1076.91,-496.583 1065.63,-484.615 1055.82,-474.217"/>
<polygon fill="black" stroke="black" points="1058.09,-471.519 1048.68,-466.644 1053,-476.321 1058.09,-471.519"/>
</g>
<!-- term -->
<g id="node21" class="node"><title>term</title>
<ellipse fill="none" stroke="black" cx="1700.93" cy="-450" rx="27.0966" ry="18"/>
<text text-anchor="middle" x="1700.93" y="-446.3" font-family="Times,serif" font-size="14.00">term</text>
</g>
<!-- cargo&#45;&gt;term -->
<g id="edge20" class="edge"><title>cargo&#45;&gt;term</title>
<path fill="none" stroke="black" d="M1130.55,-519.528C1232.93,-514.388 1562.67,-496.012 1664.93,-468 1666.88,-467.466 1668.86,-466.832 1670.83,-466.128"/>
<polygon fill="black" stroke="black" points="1672.55,-469.203 1680.46,-462.161 1669.89,-462.73 1672.55,-469.203"/>
</g>
<!-- threadpool -->
<g id="node22" class="node"><title>threadpool</title>
<ellipse fill="none" stroke="black" cx="1607.93" cy="-450" rx="48.1917" ry="18"/>
<text text-anchor="middle" x="1607.93" y="-446.3" font-family="Times,serif" font-size="14.00">threadpool</text>
</g>
<!-- cargo&#45;&gt;threadpool -->
<g id="edge21" class="edge"><title>cargo&#45;&gt;threadpool</title>
<path fill="none" stroke="black" d="M1130.19,-518.971C1202.56,-513.779 1391.15,-498.24 1545.93,-468 1551.07,-466.996 1556.41,-465.789 1561.7,-464.487"/>
<polygon fill="black" stroke="black" points="1562.95,-467.78 1571.76,-461.894 1561.2,-461.002 1562.95,-467.78"/>
</g>
<!-- time -->
<g id="node23" class="node"><title>time</title>
<ellipse fill="none" stroke="black" cx="1337.93" cy="-162" rx="27" ry="18"/>
<text text-anchor="middle" x="1337.93" y="-158.3" font-family="Times,serif" font-size="14.00">time</text>
</g>
<!-- cargo&#45;&gt;time -->
<g id="edge22" class="edge"><title>cargo&#45;&gt;time</title>
<path fill="none" stroke="black" d="M1130.66,-520.124C1258.32,-516.29 1742.88,-499.75 1802.93,-468 1847.67,-444.35 1873.93,-429.6 1873.93,-379 1873.93,-379 1873.93,-379 1873.93,-305 1873.93,-237.523 1813.67,-240.841 1750.93,-216 1682.71,-188.989 1463,-171.49 1374.94,-165.401"/>
<polygon fill="black" stroke="black" points="1375.09,-161.903 1364.87,-164.716 1374.61,-168.887 1375.09,-161.903"/>
</g>
<!-- toml -->
<g id="node24" class="node"><title>toml</title>
<ellipse fill="none" stroke="black" cx="689.934" cy="-306" rx="27.0966" ry="18"/>
<text text-anchor="middle" x="689.934" y="-302.3" font-family="Times,serif" font-size="14.00">toml</text>
</g>
<!-- cargo&#45;&gt;toml -->
<g id="edge23" class="edge"><title>cargo&#45;&gt;toml</title>
<path fill="none" stroke="black" d="M1069.7,-519.396C978.573,-514.257 711.307,-496.829 685.934,-468 653.316,-430.941 667.596,-368.411 679.597,-333.177"/>
<polygon fill="black" stroke="black" points="682.954,-334.186 683.037,-323.591 676.365,-331.821 682.954,-334.186"/>
</g>
<!-- url -->
<g id="node25" class="node"><title>url</title>
<ellipse fill="none" stroke="black" cx="411.934" cy="-306" rx="27" ry="18"/>
<text text-anchor="middle" x="411.934" y="-302.3" font-family="Times,serif" font-size="14.00">url</text>
</g>
<!-- cargo&#45;&gt;url -->
<g id="edge24" class="edge"><title>cargo&#45;&gt;url</title>
<path fill="none" stroke="black" d="M1069.33,-521.151C937.64,-521.485 423.768,-519.465 375.934,-468 340.85,-430.254 372.864,-366.039 394.99,-331.205"/>
<polygon fill="black" stroke="black" points="398.07,-332.891 400.63,-322.61 392.217,-329.051 398.07,-332.891"/>
</g>
<!-- winapi -->
<g id="node26" class="node"><title>winapi</title>
<ellipse fill="none" stroke="black" cx="1578.93" cy="-306" rx="34.394" ry="18"/>
<text text-anchor="middle" x="1578.93" y="-302.3" font-family="Times,serif" font-size="14.00">winapi</text>
</g>
<!-- cargo&#45;&gt;winapi -->
<g id="edge25" class="edge"><title>cargo&#45;&gt;winapi</title>
<path fill="none" stroke="black" d="M1130.68,-520.648C1210.63,-519.125 1422.42,-511.027 1474.93,-468 1514.29,-435.75 1483.52,-401.524 1512.93,-360 1522.39,-346.651 1536.1,-334.891 1548.58,-325.861"/>
<polygon fill="black" stroke="black" points="1550.72,-328.631 1556.95,-320.06 1546.74,-322.877 1550.72,-328.631"/>
</g>
<!-- advapi32_sys&#45;&gt;winapi -->
<g id="edge26" class="edge"><title>advapi32_sys&#45;&gt;winapi</title>
<path fill="none" stroke="black" d="M1716.15,-363.17C1686.85,-351.178 1644.58,-333.875 1614.72,-321.649"/>
<polygon fill="black" stroke="black" points="1615.68,-318.261 1605.1,-317.712 1613.03,-324.739 1615.68,-318.261"/>
</g>
<!-- curl&#45;&gt;libc -->
<g id="edge28" class="edge"><title>curl&#45;&gt;libc</title>
<path fill="none" stroke="black" d="M326.971,-360.612C343.748,-328.103 385.657,-255.214 441.934,-216 577.009,-121.878 780.126,-98.5345 862.873,-92.8203"/>
<polygon fill="black" stroke="black" points="863.289,-96.3009 873.044,-92.1661 862.84,-89.3153 863.289,-96.3009"/>
</g>
<!-- curl&#45;&gt;url -->
<g id="edge30" class="edge"><title>curl&#45;&gt;url</title>
<path fill="none" stroke="black" d="M336.426,-363.834C350.455,-353.274 370.349,-338.3 386.195,-326.373"/>
<polygon fill="black" stroke="black" points="388.635,-328.918 394.52,-320.107 384.425,-323.325 388.635,-328.918"/>
</g>
<!-- curl_sys -->
<g id="node27" class="node"><title>curl_sys</title>
<ellipse fill="none" stroke="black" cx="54.9337" cy="-234" rx="40.0939" ry="18"/>
<text text-anchor="middle" x="54.9337" y="-230.3" font-family="Times,serif" font-size="14.00">curl_sys</text>
</g>
<!-- curl&#45;&gt;curl_sys -->
<g id="edge27" class="edge"><title>curl&#45;&gt;curl_sys</title>
<path fill="none" stroke="black" d="M293.632,-371.299C261.964,-363.515 206.694,-347.756 163.934,-324 131.362,-305.905 98.9128,-277.781 78.0006,-258.001"/>
<polygon fill="black" stroke="black" points="80.2107,-255.271 70.5745,-250.867 75.3611,-260.319 80.2107,-255.271"/>
</g>
<!-- openssl_sys -->
<g id="node28" class="node"><title>openssl_sys</title>
<ellipse fill="none" stroke="black" cx="306.934" cy="-162" rx="52.7911" ry="18"/>
<text text-anchor="middle" x="306.934" y="-158.3" font-family="Times,serif" font-size="14.00">openssl_sys</text>
</g>
<!-- curl&#45;&gt;openssl_sys -->
<g id="edge29" class="edge"><title>curl&#45;&gt;openssl_sys</title>
<path fill="none" stroke="black" d="M317.972,-359.849C315.896,-322.832 310.981,-235.181 308.469,-190.386"/>
<polygon fill="black" stroke="black" points="311.954,-190.021 307.9,-180.232 304.965,-190.413 311.954,-190.021"/>
</g>
<!-- docopt&#45;&gt;regex -->
<g id="edge35" class="edge"><title>docopt&#45;&gt;regex</title>
<path fill="none" stroke="black" d="M969.821,-438.286C975.45,-436.135 981.366,-433.941 986.934,-432 1032.5,-416.114 1085.7,-399.897 1120.29,-389.658"/>
<polygon fill="black" stroke="black" points="1121.36,-392.991 1129.96,-386.806 1119.38,-386.277 1121.36,-392.991"/>
</g>
<!-- docopt&#45;&gt;rustc_serialize -->
<g id="edge36" class="edge"><title>docopt&#45;&gt;rustc_serialize</title>
<path fill="none" stroke="black" d="M924.232,-434.775C886.86,-406.428 800.162,-341.057 725.934,-288 711.173,-277.45 694.62,-266.006 680.655,-256.462"/>
<polygon fill="black" stroke="black" points="682.567,-253.53 672.333,-250.79 678.625,-259.314 682.567,-253.53"/>
</g>
<!-- env_logger&#45;&gt;log -->
<g id="edge37" class="edge"><title>env_logger&#45;&gt;log</title>
<path fill="none" stroke="black" d="M1214.72,-431.811C1212.86,-413.282 1208.24,-383.314 1196.93,-360 1191.44,-348.682 1183.04,-337.717 1175.04,-328.725"/>
<polygon fill="black" stroke="black" points="1177.57,-326.309 1168.2,-321.373 1172.45,-331.078 1177.57,-326.309"/>
</g>
<!-- env_logger&#45;&gt;regex -->
<g id="edge38" class="edge"><title>env_logger&#45;&gt;regex</title>
<path fill="none" stroke="black" d="M1201.95,-432.411C1194.39,-423.441 1184.93,-412.215 1176.63,-402.373"/>
<polygon fill="black" stroke="black" points="1179.13,-399.901 1170.01,-394.511 1173.78,-404.413 1179.13,-399.901"/>
</g>
<!-- flate2&#45;&gt;libc -->
<g id="edge39" class="edge"><title>flate2&#45;&gt;libc</title>
<path fill="none" stroke="black" d="M970.071,-216.367C961.41,-198.312 946.858,-168.747 932.934,-144 927.647,-134.605 921.488,-124.511 915.932,-115.679"/>
<polygon fill="black" stroke="black" points="918.741,-113.574 910.422,-107.013 912.834,-117.33 918.741,-113.574"/>
</g>
<!-- miniz_sys -->
<g id="node31" class="node"><title>miniz_sys</title>
<ellipse fill="none" stroke="black" cx="1095.93" cy="-162" rx="46.5926" ry="18"/>
<text text-anchor="middle" x="1095.93" y="-158.3" font-family="Times,serif" font-size="14.00">miniz_sys</text>
</g>
<!-- flate2&#45;&gt;miniz_sys -->
<g id="edge40" class="edge"><title>flate2&#45;&gt;miniz_sys</title>
<path fill="none" stroke="black" d="M998.758,-220.647C1016.51,-210.116 1042.34,-194.793 1062.91,-182.591"/>
<polygon fill="black" stroke="black" points="1064.84,-185.517 1071.65,-177.405 1061.27,-179.496 1064.84,-185.517"/>
</g>
<!-- git2&#45;&gt;libc -->
<g id="edge42" class="edge"><title>git2&#45;&gt;libc</title>
<path fill="none" stroke="black" d="M517.991,-361.283C524.9,-351.001 533.647,-337.094 539.934,-324 561.957,-278.128 542.533,-252.551 577.934,-216 657.533,-133.815 797.339,-104.701 863.396,-95.202"/>
<polygon fill="black" stroke="black" points="863.91,-98.6642 873.344,-93.8407 862.961,-91.7289 863.91,-98.6642"/>
</g>
<!-- git2&#45;&gt;url -->
<g id="edge44" class="edge"><title>git2&#45;&gt;url</title>
<path fill="none" stroke="black" d="M489.509,-364.161C475.004,-353.473 454.142,-338.101 437.704,-325.989"/>
<polygon fill="black" stroke="black" points="439.696,-323.109 429.569,-319.995 435.544,-328.744 439.696,-323.109"/>
</g>
<!-- bitflags -->
<g id="node32" class="node"><title>bitflags</title>
<ellipse fill="none" stroke="black" cx="493.934" cy="-306" rx="37.0935" ry="18"/>
<text text-anchor="middle" x="493.934" y="-302.3" font-family="Times,serif" font-size="14.00">bitflags</text>
</g>
<!-- git2&#45;&gt;bitflags -->
<g id="edge41" class="edge"><title>git2&#45;&gt;bitflags</title>
<path fill="none" stroke="black" d="M503.787,-360.055C502.355,-352.346 500.624,-343.027 499.016,-334.364"/>
<polygon fill="black" stroke="black" points="502.409,-333.468 497.142,-324.275 495.527,-334.746 502.409,-333.468"/>
</g>
<!-- libgit2_sys -->
<g id="node33" class="node"><title>libgit2_sys</title>
<ellipse fill="none" stroke="black" cx="221.934" cy="-306" rx="49.2915" ry="18"/>
<text text-anchor="middle" x="221.934" y="-302.3" font-family="Times,serif" font-size="14.00">libgit2_sys</text>
</g>
<!-- git2&#45;&gt;libgit2_sys -->
<g id="edge43" class="edge"><title>git2&#45;&gt;libgit2_sys</title>
<path fill="none" stroke="black" d="M481.642,-370.788C434.669,-359.251 333.178,-334.323 271.903,-319.273"/>
<polygon fill="black" stroke="black" points="272.605,-315.842 262.059,-316.855 270.936,-322.64 272.605,-315.842"/>
</g>
<!-- git2_curl&#45;&gt;curl -->
<g id="edge45" class="edge"><title>git2_curl&#45;&gt;curl</title>
<path fill="none" stroke="black" d="M488.926,-437.908C451.448,-424.921 389.691,-403.52 351.832,-390.4"/>
<polygon fill="black" stroke="black" points="352.885,-387.061 342.29,-387.094 350.593,-393.675 352.885,-387.061"/>
</g>
<!-- git2_curl&#45;&gt;git2 -->
<g id="edge46" class="edge"><title>git2_curl&#45;&gt;git2</title>
<path fill="none" stroke="black" d="M517.545,-432.055C516.003,-424.346 514.139,-415.027 512.406,-406.364"/>
<polygon fill="black" stroke="black" points="515.782,-405.395 510.389,-396.275 508.918,-406.768 515.782,-405.395"/>
</g>
<!-- git2_curl&#45;&gt;log -->
<g id="edge47" class="edge"><title>git2_curl&#45;&gt;log</title>
<path fill="none" stroke="black" d="M557.644,-440.752C669.938,-415.521 1007.85,-339.599 1117.88,-314.875"/>
<polygon fill="black" stroke="black" points="1118.82,-318.253 1127.81,-312.646 1117.28,-311.423 1118.82,-318.253"/>
</g>
<!-- git2_curl&#45;&gt;url -->
<g id="edge48" class="edge"><title>git2_curl&#45;&gt;url</title>
<path fill="none" stroke="black" d="M504.411,-432.948C494.283,-422.762 481.314,-409.079 470.934,-396 454.47,-375.255 438.007,-349.946 426.672,-331.629"/>
<polygon fill="black" stroke="black" points="429.596,-329.701 421.39,-322.999 423.625,-333.355 429.596,-329.701"/>
</g>
<!-- kernel32_sys&#45;&gt;winapi -->
<g id="edge49" class="edge"><title>kernel32_sys&#45;&gt;winapi</title>
<path fill="none" stroke="black" d="M1578.93,-359.697C1578.93,-351.983 1578.93,-342.712 1578.93,-334.112"/>
<polygon fill="black" stroke="black" points="1582.43,-334.104 1578.93,-324.104 1575.43,-334.104 1582.43,-334.104"/>
</g>
<!-- log&#45;&gt;libc -->
<g id="edge61" class="edge"><title>log&#45;&gt;libc</title>
<path fill="none" stroke="black" d="M1136.72,-291.288C1093.44,-254.673 974.965,-154.465 923.889,-111.262"/>
<polygon fill="black" stroke="black" points="925.905,-108.384 916.01,-104.598 921.384,-113.728 925.905,-108.384"/>
</g>
<!-- num_cpus&#45;&gt;libc -->
<g id="edge65" class="edge"><title>num_cpus&#45;&gt;libc</title>
<path fill="none" stroke="black" d="M1209.62,-150.315C1201.53,-148.093 1192.97,-145.862 1184.93,-144 1096.23,-123.433 990.542,-105.463 936.193,-96.693"/>
<polygon fill="black" stroke="black" points="936.455,-93.1905 926.027,-95.0636 935.347,-100.102 936.455,-93.1905"/>
</g>
<!-- gcc -->
<g id="node37" class="node"><title>gcc</title>
<ellipse fill="none" stroke="black" cx="1170.93" cy="-90" rx="27" ry="18"/>
<text text-anchor="middle" x="1170.93" y="-86.3" font-family="Times,serif" font-size="14.00">gcc</text>
</g>
<!-- num_cpus&#45;&gt;gcc -->
<g id="edge64" class="edge"><title>num_cpus&#45;&gt;gcc</title>
<path fill="none" stroke="black" d="M1228.91,-145.116C1218.52,-135.415 1205.1,-122.887 1193.79,-112.329"/>
<polygon fill="black" stroke="black" points="1196.05,-109.657 1186.35,-105.393 1191.28,-114.775 1196.05,-109.657"/>
</g>
<!-- registry&#45;&gt;curl -->
<g id="edge72" class="edge"><title>registry&#45;&gt;curl</title>
<path fill="none" stroke="black" d="M401.888,-434.834C385.815,-424.016 363.539,-409.023 346.117,-397.297"/>
<polygon fill="black" stroke="black" points="347.758,-394.182 337.508,-391.502 343.85,-399.989 347.758,-394.182"/>
</g>
<!-- registry&#45;&gt;rustc_serialize -->
<g id="edge73" class="edge"><title>registry&#45;&gt;rustc_serialize</title>
<path fill="none" stroke="black" d="M451.927,-438.376C482.608,-426.758 528.546,-408.173 542.934,-396 566.576,-375.996 611.439,-300.762 634.48,-260.615"/>
<polygon fill="black" stroke="black" points="637.529,-262.334 639.447,-251.914 631.45,-258.864 637.529,-262.334"/>
</g>
<!-- rand -->
<g id="node38" class="node"><title>rand</title>
<ellipse fill="none" stroke="black" cx="1033.93" cy="-378" rx="27" ry="18"/>
<text text-anchor="middle" x="1033.93" y="-374.3" font-family="Times,serif" font-size="14.00">rand</text>
</g>
<!-- tempdir&#45;&gt;rand -->
<g id="edge74" class="edge"><title>tempdir&#45;&gt;rand</title>
<path fill="none" stroke="black" d="M1033.93,-431.697C1033.93,-423.983 1033.93,-414.712 1033.93,-406.112"/>
<polygon fill="black" stroke="black" points="1037.43,-406.104 1033.93,-396.104 1030.43,-406.104 1037.43,-406.104"/>
</g>
<!-- term&#45;&gt;kernel32_sys -->
<g id="edge75" class="edge"><title>term&#45;&gt;kernel32_sys</title>
<path fill="none" stroke="black" d="M1681.06,-437.597C1662.98,-427.225 1635.88,-411.676 1614.14,-399.201"/>
<polygon fill="black" stroke="black" points="1615.61,-396.008 1605.19,-394.067 1612.13,-402.08 1615.61,-396.008"/>
</g>
<!-- term&#45;&gt;winapi -->
<g id="edge76" class="edge"><title>term&#45;&gt;winapi</title>
<path fill="none" stroke="black" d="M1692.86,-432.797C1683.08,-414.071 1665.34,-382.897 1644.93,-360 1633.97,-347.699 1619.95,-336.006 1607.65,-326.748"/>
<polygon fill="black" stroke="black" points="1609.61,-323.842 1599.47,-320.751 1605.47,-329.487 1609.61,-323.842"/>
</g>
<!-- time&#45;&gt;libc -->
<g id="edge78" class="edge"><title>time&#45;&gt;libc</title>
<path fill="none" stroke="black" d="M1317.42,-149.98C1312.47,-147.694 1307.11,-145.522 1301.93,-144 1171.53,-105.636 1009.15,-94.9927 937.21,-92.0785"/>
<polygon fill="black" stroke="black" points="936.987,-88.5677 926.862,-91.6881 936.723,-95.5628 936.987,-88.5677"/>
</g>
<!-- time&#45;&gt;gcc -->
<g id="edge77" class="edge"><title>time&#45;&gt;gcc</title>
<path fill="none" stroke="black" d="M1316.7,-150.731C1311.87,-148.462 1306.75,-146.107 1301.93,-144 1268.66,-129.425 1230.04,-113.978 1203.4,-103.544"/>
<polygon fill="black" stroke="black" points="1204.4,-100.178 1193.82,-99.8034 1201.86,-106.699 1204.4,-100.178"/>
</g>
<!-- toml&#45;&gt;rustc_serialize -->
<g id="edge79" class="edge"><title>toml&#45;&gt;rustc_serialize</title>
<path fill="none" stroke="black" d="M680.424,-288.765C675.599,-280.525 669.619,-270.317 664.171,-261.016"/>
<polygon fill="black" stroke="black" points="667.038,-258.984 658.963,-252.124 660.997,-262.522 667.038,-258.984"/>
</g>
<!-- url&#45;&gt;rustc_serialize -->
<g id="edge81" class="edge"><title>url&#45;&gt;rustc_serialize</title>
<path fill="none" stroke="black" d="M432.979,-294.273C437.82,-292.028 442.998,-289.799 447.934,-288 494.82,-270.912 549.701,-256.82 590.259,-247.474"/>
<polygon fill="black" stroke="black" points="591.274,-250.833 600.248,-245.201 589.721,-244.007 591.274,-250.833"/>
</g>
<!-- matches -->
<g id="node39" class="node"><title>matches</title>
<ellipse fill="none" stroke="black" cx="490.934" cy="-234" rx="40.0939" ry="18"/>
<text text-anchor="middle" x="490.934" y="-230.3" font-family="Times,serif" font-size="14.00">matches</text>
</g>
<!-- url&#45;&gt;matches -->
<g id="edge80" class="edge"><title>url&#45;&gt;matches</title>
<path fill="none" stroke="black" d="M427.542,-291.17C438.49,-281.469 453.36,-268.293 465.947,-257.14"/>
<polygon fill="black" stroke="black" points="468.27,-259.758 473.433,-250.507 463.627,-254.519 468.27,-259.758"/>
</g>
<!-- winapi&#45;&gt;libc -->
<g id="edge82" class="edge"><title>winapi&#45;&gt;libc</title>
<path fill="none" stroke="black" d="M1546.43,-299.632C1476.98,-287.114 1310.63,-251.476 1189.93,-180 1169.92,-168.146 1172.54,-154.802 1151.93,-144 1081.88,-107.277 988.3,-95.9988 937.166,-92.5351"/>
<polygon fill="black" stroke="black" points="937.118,-89.0257 926.923,-91.9083 936.691,-96.0126 937.118,-89.0257"/>
</g>
<!-- curl_sys&#45;&gt;libc -->
<g id="edge31" class="edge"><title>curl_sys&#45;&gt;libc</title>
<path fill="none" stroke="black" d="M52.4283,-215.991C50.4913,-195.577 50.9002,-161.87 70.9337,-144 100.884,-117.284 705.729,-96.951 862.884,-92.1048"/>
<polygon fill="black" stroke="black" points="863.107,-95.5997 872.996,-91.7953 862.893,-88.6029 863.107,-95.5997"/>
</g>
<!-- curl_sys&#45;&gt;openssl_sys -->
<g id="edge33" class="edge"><title>curl_sys&#45;&gt;openssl_sys</title>
<path fill="none" stroke="black" d="M88.1374,-223.777C131.49,-211.734 207.731,-190.556 257.787,-176.652"/>
<polygon fill="black" stroke="black" points="258.734,-180.021 267.432,-173.973 256.86,-173.277 258.734,-180.021"/>
</g>
<!-- libz_sys -->
<g id="node29" class="node"><title>libz_sys</title>
<ellipse fill="none" stroke="black" cx="119.934" cy="-162" rx="39.7935" ry="18"/>
<text text-anchor="middle" x="119.934" y="-158.3" font-family="Times,serif" font-size="14.00">libz_sys</text>
</g>
<!-- curl_sys&#45;&gt;libz_sys -->
<g id="edge32" class="edge"><title>curl_sys&#45;&gt;libz_sys</title>
<path fill="none" stroke="black" d="M69.6832,-217.116C78.16,-207.987 88.9609,-196.355 98.3752,-186.217"/>
<polygon fill="black" stroke="black" points="101.003,-188.531 105.243,-178.821 95.8732,-183.768 101.003,-188.531"/>
</g>
<!-- pkg_config -->
<g id="node30" class="node"><title>pkg_config</title>
<ellipse fill="none" stroke="black" cx="119.934" cy="-90" rx="50.8918" ry="18"/>
<text text-anchor="middle" x="119.934" y="-86.3" font-family="Times,serif" font-size="14.00">pkg_config</text>
</g>
<!-- curl_sys&#45;&gt;pkg_config -->
<g id="edge34" class="edge"><title>curl_sys&#45;&gt;pkg_config</title>
<path fill="none" stroke="black" d="M45.4784,-216.238C36.3033,-197.548 25.4488,-166.935 37.9337,-144 46.39,-128.465 61.5757,-116.789 76.6002,-108.407"/>
<polygon fill="black" stroke="black" points="78.5999,-111.313 85.8726,-103.609 75.3827,-105.096 78.5999,-111.313"/>
</g>
<!-- openssl_sys&#45;&gt;libc -->
<g id="edge67" class="edge"><title>openssl_sys&#45;&gt;libc</title>
<path fill="none" stroke="black" d="M346.403,-149.953C355.398,-147.724 364.952,-145.583 373.934,-144 555.716,-111.962 776.509,-97.5522 862.831,-92.8461"/>
<polygon fill="black" stroke="black" points="863.119,-96.3358 872.918,-92.3073 862.746,-89.3457 863.119,-96.3358"/>
</g>
<!-- openssl_sys&#45;&gt;pkg_config -->
<g id="edge69" class="edge"><title>openssl_sys&#45;&gt;pkg_config</title>
<path fill="none" stroke="black" d="M272.635,-148.161C241.83,-136.629 196.459,-119.646 163.177,-107.187"/>
<polygon fill="black" stroke="black" points="164.292,-103.868 153.7,-103.64 161.838,-110.423 164.292,-103.868"/>
</g>
<!-- libressl_pnacl_sys -->
<g id="node35" class="node"><title>libressl_pnacl_sys</title>
<ellipse fill="none" stroke="black" cx="306.934" cy="-90" rx="75.2868" ry="18"/>
<text text-anchor="middle" x="306.934" y="-86.3" font-family="Times,serif" font-size="14.00">libressl_pnacl_sys</text>
</g>
<!-- openssl_sys&#45;&gt;libressl_pnacl_sys -->
<g id="edge68" class="edge"><title>openssl_sys&#45;&gt;libressl_pnacl_sys</title>
<path fill="none" stroke="black" d="M306.934,-143.697C306.934,-135.983 306.934,-126.712 306.934,-118.112"/>
<polygon fill="black" stroke="black" points="310.434,-118.104 306.934,-108.104 303.434,-118.104 310.434,-118.104"/>
</g>
<!-- openssl_sys&#45;&gt;gcc -->
<g id="edge66" class="edge"><title>openssl_sys&#45;&gt;gcc</title>
<path fill="none" stroke="black" d="M357.437,-156.908C515.209,-144.126 996.518,-105.131 1133.94,-93.9972"/>
<polygon fill="black" stroke="black" points="1134.28,-97.4809 1143.97,-93.1847 1133.72,-90.5037 1134.28,-97.4809"/>
</g>
<!-- libz_sys&#45;&gt;pkg_config -->
<g id="edge60" class="edge"><title>libz_sys&#45;&gt;pkg_config</title>
<path fill="none" stroke="black" d="M119.934,-143.697C119.934,-135.983 119.934,-126.712 119.934,-118.112"/>
<polygon fill="black" stroke="black" points="123.434,-118.104 119.934,-108.104 116.434,-118.104 123.434,-118.104"/>
</g>
<!-- miniz_sys&#45;&gt;libc -->
<g id="edge63" class="edge"><title>miniz_sys&#45;&gt;libc</title>
<path fill="none" stroke="black" d="M1062.68,-149.125C1026.45,-136.183 968.825,-115.604 932.755,-102.722"/>
<polygon fill="black" stroke="black" points="933.783,-99.3727 923.189,-99.3053 931.429,-105.965 933.783,-99.3727"/>
</g>
<!-- miniz_sys&#45;&gt;gcc -->
<g id="edge62" class="edge"><title>miniz_sys&#45;&gt;gcc</title>
<path fill="none" stroke="black" d="M1112.95,-145.116C1123.35,-135.415 1136.77,-122.887 1148.08,-112.329"/>
<polygon fill="black" stroke="black" points="1150.59,-114.775 1155.51,-105.393 1145.81,-109.657 1150.59,-114.775"/>
</g>
<!-- libgit2_sys&#45;&gt;libc -->
<g id="edge50" class="edge"><title>libgit2_sys&#45;&gt;libc</title>
<path fill="none" stroke="black" d="M241.393,-289.373C254.37,-278.894 271.766,-264.731 286.934,-252 290.448,-249.05 407.726,-145.831 411.934,-144 492.986,-108.736 763.11,-95.8215 862.669,-92.191"/>
<polygon fill="black" stroke="black" points="862.986,-95.6821 872.856,-91.8305 862.738,-88.6865 862.986,-95.6821"/>
</g>
<!-- libgit2_sys&#45;&gt;openssl_sys -->
<g id="edge53" class="edge"><title>libgit2_sys&#45;&gt;openssl_sys</title>
<path fill="none" stroke="black" d="M235.704,-288.364C243.816,-278.187 254.007,-264.718 261.934,-252 274.606,-231.667 286.726,-207.312 295.189,-189.224"/>
<polygon fill="black" stroke="black" points="298.486,-190.431 299.495,-179.885 292.129,-187.501 298.486,-190.431"/>
</g>
<!-- libgit2_sys&#45;&gt;libz_sys -->
<g id="edge52" class="edge"><title>libgit2_sys&#45;&gt;libz_sys</title>
<path fill="none" stroke="black" d="M191.545,-291.78C174.533,-282.887 154.316,-269.566 141.934,-252 129.149,-233.863 123.764,-209.085 121.512,-190.279"/>
<polygon fill="black" stroke="black" points="124.989,-189.872 120.535,-180.258 118.022,-190.551 124.989,-189.872"/>
</g>
<!-- libgit2_sys&#45;&gt;pkg_config -->
<g id="edge54" class="edge"><title>libgit2_sys&#45;&gt;pkg_config</title>
<path fill="none" stroke="black" d="M175.04,-300.187C117.942,-293.246 26.5456,-278.281 5.93365,-252 -13.78,-226.864 23.0789,-151.295 28.9337,-144 41.3891,-128.48 59.7033,-116.577 76.6427,-108.02"/>
<polygon fill="black" stroke="black" points="78.3548,-111.081 85.8661,-103.609 75.3346,-104.766 78.3548,-111.081"/>
</g>
<!-- libssh2_sys -->
<g id="node34" class="node"><title>libssh2_sys</title>
<ellipse fill="none" stroke="black" cx="201.934" cy="-234" rx="51.1914" ry="18"/>
<text text-anchor="middle" x="201.934" y="-230.3" font-family="Times,serif" font-size="14.00">libssh2_sys</text>
</g>
<!-- libgit2_sys&#45;&gt;libssh2_sys -->
<g id="edge51" class="edge"><title>libgit2_sys&#45;&gt;libssh2_sys</title>
<path fill="none" stroke="black" d="M217.092,-288.055C214.865,-280.261 212.168,-270.822 209.67,-262.079"/>
<polygon fill="black" stroke="black" points="212.982,-260.929 206.869,-252.275 206.251,-262.852 212.982,-260.929"/>
</g>
<!-- libssh2_sys&#45;&gt;libc -->
<g id="edge56" class="edge"><title>libssh2_sys&#45;&gt;libc</title>
<path fill="none" stroke="black" d="M204.92,-215.93C209.544,-195.125 220.585,-160.684 244.934,-144 295.967,-109.031 730.73,-95.2715 862.338,-91.8841"/>
<polygon fill="black" stroke="black" points="862.795,-95.3738 872.703,-91.6228 862.618,-88.3761 862.795,-95.3738"/>
</g>
<!-- libssh2_sys&#45;&gt;openssl_sys -->
<g id="edge58" class="edge"><title>libssh2_sys&#45;&gt;openssl_sys</title>
<path fill="none" stroke="black" d="M224.717,-217.811C239.475,-207.972 258.905,-195.019 275.171,-184.175"/>
<polygon fill="black" stroke="black" points="277.453,-186.86 283.832,-178.401 273.57,-181.036 277.453,-186.86"/>
</g>
<!-- libssh2_sys&#45;&gt;libz_sys -->
<g id="edge57" class="edge"><title>libssh2_sys&#45;&gt;libz_sys</title>
<path fill="none" stroke="black" d="M183.327,-217.116C172.163,-207.586 157.805,-195.329 145.577,-184.89"/>
<polygon fill="black" stroke="black" points="147.782,-182.171 137.904,-178.34 143.237,-187.495 147.782,-182.171"/>
</g>
<!-- libssh2_sys&#45;&gt;pkg_config -->
<g id="edge59" class="edge"><title>libssh2_sys&#45;&gt;pkg_config</title>
<path fill="none" stroke="black" d="M197.782,-216.041C192.757,-197.446 183.161,-167.172 168.934,-144 162.442,-133.428 153.644,-123.106 145.293,-114.423"/>
<polygon fill="black" stroke="black" points="147.679,-111.858 138.139,-107.248 142.722,-116.801 147.679,-111.858"/>
</g>
<!-- pnacl_build_helper -->
<g id="node36" class="node"><title>pnacl_build_helper</title>
<ellipse fill="none" stroke="black" cx="306.934" cy="-18" rx="78.7863" ry="18"/>
<text text-anchor="middle" x="306.934" y="-14.3" font-family="Times,serif" font-size="14.00">pnacl_build_helper</text>
</g>
<!-- libressl_pnacl_sys&#45;&gt;pnacl_build_helper -->
<g id="edge55" class="edge"><title>libressl_pnacl_sys&#45;&gt;pnacl_build_helper</title>
<path fill="none" stroke="black" d="M306.934,-71.6966C306.934,-63.9827 306.934,-54.7125 306.934,-46.1124"/>
<polygon fill="black" stroke="black" points="310.434,-46.1043 306.934,-36.1043 303.434,-46.1044 310.434,-46.1043"/>
</g>
<!-- rand&#45;&gt;libc -->
<g id="edge70" class="edge"><title>rand&#45;&gt;libc</title>
<path fill="none" stroke="black" d="M1019.51,-362.62C998.372,-340.701 959.179,-296.739 937.934,-252 917.014,-207.948 907.128,-151.501 902.842,-118.483"/>
<polygon fill="black" stroke="black" points="906.277,-117.74 901.595,-108.236 899.328,-118.585 906.277,-117.74"/>
</g>
<!-- rand&#45;&gt;log -->
<g id="edge71" class="edge"><title>rand&#45;&gt;log</title>
<path fill="none" stroke="black" d="M1053.58,-365.441C1072.88,-354.092 1102.51,-336.658 1124.4,-323.784"/>
<polygon fill="black" stroke="black" points="1126.41,-326.663 1133.25,-318.576 1122.86,-320.63 1126.41,-326.663"/>
</g>
</g>
</svg>
